<?xml version="1.0" encoding="UTF-8"?>
<svg width="520px" height="120px" viewBox="0 0 520 120" version="1.1" xmlns="http://www.w3.org/2000/svg" xmlns:xlink="http://www.w3.org/1999/xlink">
    <title>Group 46 Copy</title>
    <g id="Page-1" stroke="none" stroke-width="1" fill="none" fill-rule="evenodd">
        <g id="Group-46-Copy" fill-rule="nonzero">
            <path d="M10,20 L20,20 C42.0309024,20 59.8837209,37.9123279 59.8837209,60 C59.8837209,81.8667954 42.3861735,99.6413359 20.65966,99.99464 L20,100 L20,90 C36.5005917,90 49.8837209,76.5722604 49.8837209,60 C49.8837209,43.5934622 36.766916,30.2688692 20.4940722,30.004018 L20,30 L0,30 L0,0 L20,0 C53.137085,0 80,26.862915 80,60 C80,92.8057141 53.671657,119.462114 20.9922097,119.991962 L20,120 L0,120 L0,70 L20,70 C25.5228475,70 30,65.5228475 30,60 C30,54.5707601 25.6733292,50.1520683 20.2799048,50.0038418 L20,50 L0,50 L0,40 L20,40 C31.045695,40 40,48.954305 40,60 C40,70.9306357 31.2312714,79.813225 20.3444894,79.9970929 L20,80 L10,80 L10,110 L20,110 C47.3380951,110 69.5517619,88.0597142 69.9933014,60.8268414 L70,60 C70,32.6619049 48.0597142,10.4482381 20.8268414,10.0066986 L20,10 L10,10 L10,20 Z" id="Oval-Copy-148" fill="#2DD4BF"></path>
            <g id="Group-45-Copy" transform="translate(120.000000, 34.997076)" fill="#111111">
                <path d="M20,0.00292444213 C31.045695,0.00292444213 40,8.95722945 40,20.0029244 C40,30.9335601 31.2312714,39.8161495 20.3444894,40.0000174 L20,40.0029244 L10,40.0029244 L10,50.0029244 L1.49213975e-13,50.0029244 L1.49213975e-13,30.0029244 L0.014,30.0029244 L0.000967771135,17.7104517 L0.0296070041,0.00292444213 L20,0.00292444213 Z M20,10.0029244 L10.011,10.0029244 L10.0009532,22.0547042 L10.011,30.0029244 L20,30.0029244 C25.3356323,30.0029244 29.6952626,25.824163 29.9846996,20.5608315 L29.9961582,20.2828293 L30,20.0029244 C30,14.5736845 25.6733292,10.1549927 20.2799048,10.0067662 L20,10.0029244 Z" id="Shape"></path>
                <path d="M123,0.00292444213 C134.045695,0.00292444213 143,8.95722945 143,20.0029244 C143,26.9361073 139.472142,33.0453148 134.113604,36.6333686 L139.504408,50.0029244 L128.70006,50.0029244 L124.652914,39.935598 C124.28953,39.9653257 123.923396,39.9853394 123.554771,39.9953787 L123,40.0029244 L113,40.0029244 L113,50.0029244 L103,50.0029244 L103,30.0029244 L103.014,30.0029244 L103.000968,17.7104517 L103.029607,0.00292444213 L123,0.00292444213 Z M123,10.0029244 L113.011,10.0029244 L113.000953,22.0547042 L113.011,30.0029244 L123,30.0029244 C128.335632,30.0029244 132.695263,25.824163 132.9847,20.5608315 L132.996158,20.2828293 L133,20.0029244 C133,14.5736845 128.673329,10.1549927 123.279905,10.0067662 L123,10.0029244 Z" id="Shape"></path>
                <path d="M90,50.0029244 L80,50.0029244 L80,39.9884083 L67.7080111,40.0024406 L60,39.9894083 L60,50.0029244 L50,50.0029244 L50.0004839,20.0034083 C50.0004839,8.95771333 58.9547889,0.00340832769 70.0004839,0.00340832769 C80.9311196,0.00340832769 89.8137089,8.77213691 89.9975768,19.6589189 L90.0004839,20.0034083 L90,50.0029244 Z M70.0004839,10.0034083 C64.571244,10.0034083 60.1525522,14.3300791 60.0043257,19.7235035 L60.0004839,20.0034083 L60.0004839,29.9924083 L72.0522637,30.0024551 L80.0004839,29.9924083 L80.0004839,20.0034083 C80.0004839,14.667776 75.8217225,10.3081457 70.5583909,10.0187087 L70.2803887,10.0072501 L70.0004839,10.0034083 Z" id="Shape"></path>
                <polygon id="Path" points="255 50.0029244 255 0.00292444213 285 0.00292444213 285 10.0029244 265 10.0029244 265 20.0029244 275 20.0029244 275 30.0029244 265 30.0029244 265 40.0029244 285 40.0029244 285 50.0029244"></polygon>
                <path d="M320,0.00292444213 C331.045695,0.00292444213 340,8.95722945 340,20.0029244 C340,26.9361073 336.472142,33.0453148 331.113604,36.6333686 L336.504408,50.0029244 L325.70006,50.0029244 L321.652914,39.935598 C321.28953,39.9653257 320.923396,39.9853394 320.554771,39.9953787 L320,40.0029244 L310,40.0029244 L310,50.0029244 L300,50.0029244 L300,30.0029244 L300.014,30.0029244 L300.000968,17.7104517 L300.029607,0.00292444213 L320,0.00292444213 Z M320,10.0029244 L310.011,10.0029244 L310.000953,22.0547042 L310.011,30.0029244 L320,30.0029244 C325.335632,30.0029244 329.695263,25.824163 329.9847,20.5608315 L329.996158,20.2828293 L330,20.0029244 C330,14.5736845 325.673329,10.1549927 320.279905,10.0067662 L320,10.0029244 Z" id="Shape"></path>
                <path d="M375,0.00292444213 C361.192881,0.00292444213 350,11.1958057 350,25.0029244 C350,38.8100432 361.192881,50.0029244 375,50.0029244 C388.807119,50.0029244 400,38.8100432 400,25.0029244 C400,11.1958057 388.807119,0.00292444213 375,0.00292444213 Z M375,10.0029244 C383.284271,10.0029244 390,16.7186532 390,25.0029244 C390,33.2871957 383.284271,40.0029244 375,40.0029244 C366.715729,40.0029244 360,33.2871957 360,25.0029244 C360,16.7186532 366.715729,10.0029244 375,10.0029244 Z" id="Oval-Copy-155"></path>
                <polygon id="Path" points="189.857143 0.00292444213 189.857143 10.0029244 174.958224 10.0029244 174.959184 50.0029244 164.959184 50.0029244 164.958224 10.0029244 150.061224 10.0029244 150.061224 0.00292444213"></polygon>
                <polygon id="Path" points="210.953247 1.8189894e-12 210.954184 0.002 210.959184 0.00292444229 210.959184 0.009 231.959184 31.836 231.959184 0.00292444229 241.959184 0.00292444229 241.959184 50.0029244 231.959184 50.0029244 231.959184 49.97 210.959184 18.12 210.959184 50.0029244 200.959184 50.0029244 200.959184 0.00292444229 210.948184 0.002"></polygon>
            </g>
        </g>
    </g>
</svg>